<?xml version="1.0" encoding="utf-8"?>
<!-- Generator: Adobe Illustrator 27.3.1, SVG Export Plug-In . SVG Version: 6.00 Build 0)  -->
<svg version="1.1" id="Layer_1" xmlns="http://www.w3.org/2000/svg" xmlns:xlink="http://www.w3.org/1999/xlink" x="0px" y="0px"
	 viewBox="0 0 359.1 577" style="enable-background:new 0 0 359.1 577;" xml:space="preserve">
<style type="text/css">
	.st0{fill-rule:evenodd;clip-rule:evenodd;fill:none;stroke:#808080;stroke-width:6;stroke-miterlimit:10;}
</style>
<path class="st0" d="M6.5,15.6C6.5,5.9,11.9,3,19.1,3c7.2,0,101.5,0,101.5,0s14.6,0.6,15.6,14.1s-4.3,44.6,10.4,55.5
	c14.6,10.9,182.9,88.9,182.9,88.9s23.9,12.4,24.4,37c0.6,24.6,2.2,313.4,2.2,337.7s-17.2,35-39.3,36.3c-22,1.3-260,1.1-276.3,1.5
	c-16.3,0.4-32.4-18-36.3-40.7C0.4,510.5,6.5,25.3,6.5,15.6z"/>
</svg>
